<svg width="279" height="279" viewBox="0 0 279 279" fill="none" xmlns="http://www.w3.org/2000/svg">
<path d="M247.005 128.024C246.919 128.024 246.839 128.049 246.754 128.049C248.336 124.4 249.221 120.368 249.221 116.125C249.221 99.5015 235.744 86.0192 219.116 86.0192C213.241 86.0192 207.775 87.7262 203.142 90.6453C196.874 75.4067 181.899 64.6704 164.406 64.6704C141.272 64.6704 122.518 83.4218 122.518 106.564C122.518 108.308 122.659 110.015 122.867 111.71C122.749 111.71 122.635 111.697 122.518 111.697C107.007 111.697 94.4329 124.264 94.4329 139.775C94.4329 155.286 107.007 167.865 122.518 167.865H247.005C258.006 167.865 266.922 158.947 266.922 147.951C266.922 136.942 258.006 128.024 247.005 128.024Z" fill="#C2CEF2"/>
<path d="M197.096 154.234C196.992 154.234 196.897 154.258 196.793 154.258C198.7 149.843 199.77 144.982 199.77 139.873C199.77 119.823 183.518 103.582 163.472 103.582C156.387 103.582 149.798 105.636 144.211 109.149C136.653 90.7805 118.6 77.8303 97.5055 77.8303C69.6134 77.8303 47.0016 100.453 47.0016 128.345C47.0016 130.448 47.1722 132.514 47.4233 134.555C47.2811 134.555 47.1438 134.53 47.0016 134.53C28.3009 134.53 13.1401 149.694 13.1401 168.395C13.1401 187.096 28.3009 202.256 47.0016 202.256H197.096C210.359 202.256 221.111 191.505 221.111 178.242C221.111 164.98 210.359 154.234 197.096 154.234Z" fill="white"/>
</svg>
