<svg width="109" height="109" viewBox="0 0 109 109" fill="none" xmlns="http://www.w3.org/2000/svg">
<path d="M95.8426 50.2199C95.8095 50.2199 95.7783 50.2295 95.7452 50.2295C96.3588 48.8143 96.7023 47.2504 96.7023 45.6049C96.7023 39.1573 91.4751 33.9281 85.0261 33.9281C82.7473 33.9281 80.6274 34.5902 78.8303 35.7224C76.3995 29.812 70.5914 25.648 63.8065 25.648C54.834 25.648 47.5603 32.9207 47.5603 41.8965C47.5603 42.573 47.615 43.235 47.6956 43.8922C47.65 43.8922 47.6059 43.8874 47.5603 43.8874C41.5445 43.8874 36.6675 48.7615 36.6675 54.7774C36.6675 60.7932 41.5445 65.6721 47.5603 65.6721H95.8426C100.109 65.6721 103.568 62.2132 103.568 57.9484C103.568 53.6788 100.109 50.2199 95.8426 50.2199Z" fill="#C2CEF2"/>
<path d="M76.4856 60.3851C76.4453 60.3851 76.4084 60.3947 76.3681 60.3947C77.1078 58.682 77.5228 56.7967 77.5228 54.8154C77.5228 47.0389 71.2196 40.74 63.4445 40.74C60.6966 40.74 58.1411 41.5364 55.9741 42.8988C53.0429 35.7747 46.0408 30.752 37.8594 30.752C27.0414 30.752 18.2714 39.5263 18.2714 50.3443C18.2714 51.1598 18.3376 51.961 18.435 52.7525C18.3798 52.7525 18.3265 52.7429 18.2714 52.7429C11.0183 52.7429 5.13818 58.6245 5.13818 65.8776C5.13818 73.1307 11.0183 79.0107 18.2714 79.0107H76.4856C81.6298 79.0107 85.8001 74.8409 85.8001 69.6967C85.8001 64.553 81.6298 60.3851 76.4856 60.3851Z" fill="white"/>
</svg>
