<svg width="42" height="42" viewBox="0 0 42 42" fill="none" xmlns="http://www.w3.org/2000/svg">
<g opacity="0.4">
<path d="M8.99786 32.8978C8.1623 34.6358 8.89424 36.7234 10.6325 37.557C12.371 38.393 14.4574 37.6609 15.293 35.9228C16.1285 34.1848 15.237 27.9776 15.237 27.9776C15.237 27.9776 9.83368 31.1598 8.99786 32.8978Z" fill="white"/>
<path d="M18.3151 32.8978C17.4798 34.6358 18.2115 36.7234 19.95 37.557C21.688 38.393 23.7747 37.6609 24.6102 35.9228C25.4458 34.1848 24.5542 27.9776 24.5542 27.9776C24.5542 27.9776 19.1507 31.1598 18.3151 32.8978Z" fill="white"/>
<path d="M22.291 24.6711C23.1266 22.9331 22.235 16.7259 22.235 16.7259C22.235 16.7259 16.8317 19.908 15.9959 21.646C15.1603 23.384 15.8923 25.4717 17.6306 26.3052C19.3691 27.1413 21.4555 26.4091 22.291 24.6711Z" fill="white"/>
<path d="M27.7723 26.3052C29.5106 27.1413 31.5969 26.4091 32.4325 24.6711C33.2681 22.9331 32.3765 16.7259 32.3765 16.7259C32.3765 16.7259 26.9732 19.908 26.1374 21.646C25.3021 23.384 26.0338 25.4717 27.7723 26.3052Z" fill="white"/>
<path d="M30.8677 14.3178C31.7036 12.5796 30.8123 6.37314 30.8123 6.37314C30.8123 6.37314 25.4085 9.55375 24.5731 11.292C23.7376 13.0303 24.469 15.1169 26.2075 15.9525C27.9458 16.7868 30.0322 16.0564 30.8677 14.3178Z" fill="white"/>
<path d="M33.234 27.9776C33.234 27.9776 27.8305 31.1598 26.9949 32.8978C26.1594 34.6358 26.8913 36.7234 28.6293 37.557C30.3678 38.393 32.4542 37.6609 33.29 35.9228C34.1256 34.1848 33.234 27.9776 33.234 27.9776Z" fill="white"/>
</g>
</svg>
