<svg width="34" height="40" viewBox="0 0 34 40" fill="none" xmlns="http://www.w3.org/2000/svg">
<path d="M17.2353 11.9679C14.6478 11.9679 12.5307 14.0849 12.5307 16.6724C12.5307 19.2599 14.6478 21.377 17.2353 21.377C19.8228 21.377 21.9398 19.2599 21.9398 16.6724C21.9398 14.0849 19.8228 11.9679 17.2353 11.9679ZM17.2353 0.206451C24.9272 0.206451 33.7013 5.99307 33.7013 17.0253C33.7013 24.0351 28.6909 31.4213 18.6702 39.1132C17.8233 39.7719 16.6472 39.7719 15.8004 39.1132C5.77965 31.3977 0.769287 24.0351 0.769287 17.0253C0.769287 5.99307 9.54331 0.206451 17.2353 0.206451Z" fill="#9D99E4"/>
</svg>
