<svg width="42" height="42" viewBox="0 0 42 42" fill="none" xmlns="http://www.w3.org/2000/svg">
<g opacity="0.4">
<path d="M33.247 18.0736C33.2305 18.0736 33.2153 18.0781 33.199 18.0783C33.5018 17.378 33.6715 16.6065 33.6715 15.795C33.6715 12.6128 31.0916 10.033 27.9094 10.033C26.7847 10.033 25.7388 10.3603 24.8519 10.9175C23.6522 8.00178 20.7863 5.94719 17.4378 5.94719C13.01 5.94719 9.42073 9.53643 9.42073 13.9643C9.42073 14.2988 9.44782 14.6267 9.48768 14.9505C9.4651 14.9503 9.44331 14.9472 9.42073 14.9472C6.45214 14.9472 4.04541 17.3538 4.04541 20.3226C4.04541 23.2912 6.45214 25.6978 9.42073 25.6978H33.247C35.3524 25.6978 37.059 23.9912 37.059 21.8857C37.059 19.7803 35.3524 18.0736 33.247 18.0736Z" fill="white"/>
<path d="M14.6098 35.09C13.9623 36.4372 12.3451 37.0044 10.998 36.3569C9.65084 35.7093 9.0836 34.0922 9.73115 32.745C10.3789 31.3979 14.5664 28.9329 14.5664 28.9329C14.5664 28.9329 15.2574 33.7429 14.6098 35.09Z" fill="white"/>
<path d="M21.3396 35.09C20.6923 36.4372 19.0751 37.0044 17.728 36.3569C16.3807 35.7093 15.8136 34.0922 16.4612 32.745C17.1089 31.3979 21.2964 28.9329 21.2964 28.9329C21.2964 28.9329 21.9874 33.7429 21.3396 35.09Z" fill="white"/>
<path d="M28.1649 35.09C27.5173 36.4372 25.9002 37.0044 24.5531 36.3569C23.2059 35.7093 22.6389 34.0922 23.2862 32.745C23.934 31.3979 28.1215 28.9329 28.1215 28.9329C28.1215 28.9329 28.8125 33.7429 28.1649 35.09Z" fill="white"/>
</g>
</svg>
