<svg width="39" height="40" viewBox="0 0 39 40" fill="none" xmlns="http://www.w3.org/2000/svg">
<path d="M34.0152 8.16358H23.1304C22.3866 8.16358 21.7698 7.54678 21.7698 6.80298C21.7698 6.05919 22.3866 5.44239 23.1304 5.44239H34.0152C34.759 5.44239 35.3758 6.05919 35.3758 6.80298C35.3758 7.54678 34.759 8.16358 34.0152 8.16358Z" fill="white"/>
<path d="M28.5728 13.606H23.1304C22.3866 13.606 21.7698 12.9892 21.7698 12.2454C21.7698 11.5016 22.3866 10.8848 23.1304 10.8848H28.5728C29.3166 10.8848 29.9334 11.5016 29.9334 12.2454C29.9334 12.9892 29.3166 13.606 28.5728 13.606Z" fill="white"/>
<path d="M18.5948 37.1897C8.345 37.1897 0 28.8447 0 18.5948C0 8.345 8.345 0 18.5948 0C19.3386 0 19.9554 0.616804 19.9554 1.3606C19.9554 2.10439 19.3386 2.7212 18.5948 2.7212C9.83259 2.7212 2.7212 9.85073 2.7212 18.5948C2.7212 27.339 9.83259 34.4685 18.5948 34.4685C27.3571 34.4685 34.4685 27.339 34.4685 18.5948C34.4685 17.851 35.0853 17.2342 35.8291 17.2342C36.5729 17.2342 37.1897 17.851 37.1897 18.5948C37.1897 28.8447 28.8447 37.1897 18.5948 37.1897Z" fill="white"/>
<path d="M37.644 39.0036C37.2993 39.0036 36.9546 38.8766 36.6825 38.6045L33.0542 34.9763C32.5281 34.4502 32.5281 33.5794 33.0542 33.0533C33.5803 32.5272 34.4511 32.5272 34.9772 33.0533L38.6055 36.6815C39.1316 37.2076 39.1316 38.0784 38.6055 38.6045C38.3334 38.8766 37.9887 39.0036 37.644 39.0036Z" fill="white"/>
</svg>
