<svg width="43" height="43" viewBox="0 0 43 43" fill="none" xmlns="http://www.w3.org/2000/svg">
<path d="M21.5581 35.48C22.0799 35.4801 22.5835 35.6717 22.9734 36.0184C23.3634 36.3651 23.6125 36.8429 23.6735 37.3611L23.6884 37.6104V40.7122C23.6873 41.255 23.479 41.7769 23.1061 42.1714C22.7332 42.5658 22.2237 42.803 21.6819 42.8345C21.14 42.8661 20.6065 42.6896 20.1903 42.3411C19.7741 41.9926 19.5067 41.4983 19.4426 40.9593L19.4277 40.7122V37.6104C19.4277 37.0454 19.6521 36.5035 20.0517 36.104C20.4512 35.7045 20.993 35.48 21.5581 35.48ZM34.417 31.3641L36.6113 33.5584C36.999 33.9605 37.2134 34.4988 37.2082 35.0574C37.2029 35.6159 36.9785 36.1501 36.5832 36.5448C36.1879 36.9395 35.6535 37.1632 35.0949 37.1677C34.5363 37.1721 33.9983 36.957 33.5968 36.5686L31.4046 34.3765C31.0166 33.9747 30.8018 33.4366 30.8067 32.878C30.8115 32.3194 31.0356 31.7851 31.4306 31.3901C31.8256 30.9951 32.3599 30.7711 32.9185 30.7662C33.477 30.7614 34.0152 30.9761 34.417 31.3641ZM11.7072 31.3641C12.1066 31.7637 12.331 32.3054 12.331 32.8703C12.331 33.4352 12.1066 33.977 11.7072 34.3765L9.51721 36.5708C9.11746 36.9705 8.57529 37.1951 8.00997 37.1951C7.44465 37.1951 6.90248 36.9705 6.50273 36.5708C6.10299 36.171 5.87842 35.6289 5.87842 35.0635C5.87842 34.4982 6.10299 33.956 6.50273 33.5563L8.69701 31.362C9.09652 30.9626 9.63829 30.7383 10.2032 30.7383C10.7681 30.7383 11.3099 30.9626 11.7094 31.362L11.7072 31.3641ZM21.5858 9.78776C24.7074 9.78776 27.7013 11.0278 29.9086 13.2352C32.116 15.4426 33.3561 18.4364 33.3561 21.5581C33.3561 24.6797 32.116 27.6736 29.9086 29.8809C27.7013 32.0883 24.7074 33.3284 21.5858 33.3284C18.4641 33.3284 15.4703 32.0883 13.2629 29.8809C11.0555 27.6736 9.81546 24.6797 9.81546 21.5581C9.81546 18.4364 11.0555 15.4426 13.2629 13.2352C15.4703 11.0278 18.4641 9.78776 21.5858 9.78776ZM19.9667 15.1733C19.5806 15.1734 19.2075 15.3132 18.9165 15.567C18.6256 15.8207 18.4363 16.1713 18.3838 16.5538L18.3689 16.7711V23.1707L18.3838 23.388C18.4314 23.7338 18.5908 24.0545 18.8378 24.3011C19.0848 24.5477 19.4057 24.7066 19.7515 24.7536L19.9667 24.7685H24.2274L24.4447 24.7536C24.7902 24.7062 25.1106 24.547 25.3572 24.3005C25.6037 24.0539 25.7628 23.7335 25.8103 23.388L25.8252 23.1707L25.8103 22.9534C25.7628 22.608 25.6037 22.2876 25.3572 22.041C25.1106 21.7944 24.7902 21.6353 24.4447 21.5879L24.2274 21.573H21.5645V16.7711L21.5517 16.5538C21.4991 16.1709 21.3096 15.8201 21.0181 15.5663C20.7267 15.3124 20.3531 15.1728 19.9667 15.1733ZM40.6888 19.4724C41.2318 19.473 41.754 19.6809 42.1489 20.0537C42.5437 20.4264 42.7813 20.9359 42.8131 21.4779C42.845 22.02 42.6686 22.5537 42.3201 22.9701C41.9716 23.3865 41.4772 23.6541 40.938 23.7182L40.6888 23.7332H37.5891C37.0461 23.7326 36.5238 23.5246 36.129 23.1519C35.7342 22.7791 35.4966 22.2697 35.4648 21.7276C35.4329 21.1856 35.6093 20.6518 35.9578 20.2355C36.3063 19.8191 36.8007 19.5515 37.3398 19.4873L37.5891 19.4724H40.6909H40.6888ZM5.54407 19.4128C6.08705 19.4134 6.60932 19.6213 7.00416 19.994C7.39899 20.3668 7.63659 20.8762 7.66841 21.4183C7.70023 21.9603 7.52387 22.4941 7.17537 22.9105C6.82686 23.3269 6.33251 23.5945 5.79332 23.6586L5.54407 23.6735H2.44012C1.89731 23.6724 1.37541 23.4641 0.98098 23.0912C0.586553 22.7182 0.349351 22.2088 0.317811 21.6669C0.286271 21.125 0.462771 20.5915 0.811271 20.1754C1.15977 19.7592 1.65398 19.4918 2.19299 19.4277L2.44012 19.4128H5.54407ZM9.31482 6.38343L9.51721 6.56025L11.7094 8.75453C12.0914 9.13791 12.3133 9.65234 12.3298 10.1933C12.3463 10.7344 12.1563 11.2614 11.7983 11.6673C11.4403 12.0733 10.9412 12.3278 10.4024 12.3791C9.86361 12.4305 9.32546 12.2748 8.89727 11.9437L8.69701 11.7647L6.50273 9.57259C6.12066 9.18921 5.89883 8.67478 5.88231 8.13377C5.86579 7.59277 6.05581 7.06576 6.41379 6.65978C6.77176 6.25381 7.27084 5.99931 7.80966 5.94798C8.34848 5.89665 8.88664 6.05234 9.31482 6.38343ZM36.6113 6.56025C36.9781 6.92708 37.1984 7.41515 37.231 7.93289C37.2635 8.45062 37.106 8.96244 36.7881 9.37234L36.6113 9.57259L34.417 11.7669C34.0336 12.1489 33.5192 12.3708 32.9782 12.3873C32.4372 12.4038 31.9101 12.2138 31.5042 11.8558C31.0982 11.4978 30.8437 10.9988 30.7924 10.4599C30.741 9.92113 30.8967 9.38297 31.2278 8.95478L31.4046 8.7524L33.5989 6.55812C33.9984 6.15873 34.5402 5.93437 35.1051 5.93437C35.67 5.93437 36.2118 6.16086 36.6113 6.56025ZM21.5645 0.288437C22.0863 0.288506 22.5899 0.480077 22.9798 0.826814C23.3697 1.17355 23.6189 1.65134 23.6799 2.16955L23.6948 2.41881V5.5185C23.6991 6.0648 23.4934 6.59188 23.1202 6.99081C22.7469 7.38975 22.2347 7.63005 21.6893 7.66205C21.1439 7.69405 20.6071 7.51531 20.1898 7.16276C19.7724 6.81021 19.5065 6.31081 19.4469 5.76775L19.4341 5.5185V2.41881C19.4341 1.8538 19.6585 1.31193 20.0581 0.912408C20.4576 0.512886 20.9994 0.288437 21.5645 0.288437Z" fill="#DAD8F7"/>
</svg>
