<svg width="61" height="57" viewBox="0 0 61 57" fill="none" xmlns="http://www.w3.org/2000/svg">
<path d="M48.0194 30.9036C48.7886 30.9036 49.4478 30.2444 49.3929 29.4752C48.6512 19.5036 40.3553 11.6747 30.2189 11.6747C20.0825 11.6747 11.7866 19.5036 11.045 29.4752C10.99 30.2444 11.6493 30.9036 12.4184 30.9036H48.0194Z" fill="#ECFFB5"/>
<path d="M57.6867 32.9639H57.467C55.9561 32.9639 54.72 31.7277 54.72 30.2169C54.72 28.706 55.9561 27.4699 57.467 27.4699C58.9778 27.4699 60.3238 28.706 60.3238 30.2169C60.3238 31.7277 59.1976 32.9639 57.6867 32.9639ZM2.96675 32.9639H2.74699C1.23614 32.9639 0 31.7277 0 30.2169C0 28.706 1.23614 27.4699 2.74699 27.4699C4.25783 27.4699 5.60386 28.706 5.60386 30.2169C5.60386 31.7277 4.47759 32.9639 2.96675 32.9639ZM49.4733 13.7075C48.759 13.7075 48.0723 13.4328 47.5229 12.9108C46.4516 11.8395 46.4516 10.1089 47.5229 9.03759L47.88 8.68048C48.9513 7.60916 50.6819 7.60916 51.7533 8.68048C52.8246 9.75181 52.8246 11.4824 51.7533 12.5537L51.3961 12.9108C50.8742 13.4328 50.1875 13.7075 49.4733 13.7075ZM10.9605 13.7075C10.2463 13.7075 9.55952 13.4328 9.01012 12.9108L8.65301 12.5263C7.58169 11.4549 7.58169 9.72434 8.65301 8.65301C9.72434 7.58169 11.4549 7.58169 12.5263 8.65301L12.8834 9.01012C13.9547 10.0814 13.9547 11.812 12.8834 12.8834C12.3614 13.4328 11.6472 13.7075 10.9605 13.7075ZM30.2169 5.60386C28.706 5.60386 27.4699 4.47759 27.4699 2.96675V2.74699C27.4699 1.23614 28.706 0 30.2169 0C31.7277 0 32.9639 1.23614 32.9639 2.74699C32.9639 4.25783 31.7277 5.60386 30.2169 5.60386Z" fill="#ECFFB5"/>
<path d="M52.193 40.5181H8.24115C7.11488 40.5181 6.18091 39.5841 6.18091 38.4578C6.18091 37.3316 7.11488 36.3976 8.24115 36.3976H52.193C53.3192 36.3976 54.2532 37.3316 54.2532 38.4578C54.2532 39.5841 53.3192 40.5181 52.193 40.5181Z" fill="#ECFFB5"/>
<path d="M46.6989 48.759H13.735C12.6088 48.759 11.6748 47.8251 11.6748 46.6988C11.6748 45.5725 12.6088 44.6385 13.735 44.6385H46.6989C47.8252 44.6385 48.7591 45.5725 48.7591 46.6988C48.7591 47.8251 47.8252 48.759 46.6989 48.759Z" fill="#ECFFB5"/>
<path d="M38.4577 57H21.9758C20.8495 57 19.9155 56.066 19.9155 54.9398C19.9155 53.8135 20.8495 52.8795 21.9758 52.8795H38.4577C39.584 52.8795 40.5179 53.8135 40.5179 54.9398C40.5179 56.066 39.584 57 38.4577 57Z" fill="#ECFFB5"/>
</svg>
