<svg width="36" height="31" viewBox="0 0 36 31" fill="none" xmlns="http://www.w3.org/2000/svg">
<path d="M2.17176 4.62809C2.17176 3.70633 2.78627 3.09182 3.70803 3.09182H5.2443C6.16606 3.09182 6.78057 3.70633 6.78057 4.62809C6.78057 5.54985 6.16606 6.16436 5.2443 6.16436H3.70803C2.78627 6.16436 2.17176 5.54985 2.17176 4.62809ZM3.70803 16.9182C3.70803 15.9965 4.32254 15.382 5.2443 15.382H6.78057C7.70233 15.382 8.31683 15.9965 8.31683 16.9182C8.31683 17.84 7.70233 18.4545 6.78057 18.4545H5.2443C4.32254 18.4545 3.70803 17.84 3.70803 16.9182ZM3.70803 21.527C2.78627 21.527 2.17176 22.1415 2.17176 23.0633C2.17176 23.9851 2.78627 24.5996 3.70803 24.5996H15.9982C16.9199 24.5996 17.5344 23.9851 17.5344 23.0633C17.5344 22.1415 16.9199 21.527 15.9982 21.527H3.70803ZM29.8246 4.62809C29.8246 3.70633 30.4391 3.09182 31.3608 3.09182H34.4334C35.3551 3.09182 35.9696 3.70633 35.9696 4.62809C35.9696 5.54985 35.3551 6.16436 34.4334 6.16436H31.3608C30.4391 6.16436 29.8246 5.54985 29.8246 4.62809ZM8.31683 27.6721C7.39507 27.6721 6.78057 28.2866 6.78057 29.2084C6.78057 30.1301 7.39507 30.7446 8.31683 30.7446H19.0707C19.9925 30.7446 20.607 30.1301 20.607 29.2084C20.607 28.2866 19.9925 27.6721 19.0707 27.6721H8.31683ZM2.17176 12.3094C1.25 12.3094 0.635498 11.6949 0.635498 10.7732C0.635498 9.8514 1.25 9.23689 2.17176 9.23689H20.607C22.2969 9.23689 23.6795 7.85425 23.6795 6.16436C23.6795 4.47446 22.2969 3.09182 20.607 3.09182C19.6852 3.09182 18.9171 3.39907 18.4562 4.01358C17.8417 4.62809 16.9199 4.62809 16.3054 4.01358C15.6909 3.39907 15.6909 2.47731 16.3054 1.86281C17.3808 0.787421 18.9171 0.0192871 20.607 0.0192871C23.9868 0.0192871 26.752 2.78457 26.752 6.16436C26.752 9.54414 23.9868 12.3094 20.607 12.3094H2.17176ZM31.3608 15.382C32.2826 15.382 32.8971 14.7675 32.8971 13.8457C32.8971 12.9239 32.2826 12.3094 31.3608 12.3094C30.9 12.3094 30.5927 12.4631 30.2855 12.7703C29.6709 13.3848 28.7492 13.3848 28.1347 12.7703C27.5202 12.1558 27.5202 11.234 28.1347 10.6195C28.9028 9.69777 30.1318 9.23689 31.3608 9.23689C33.9725 9.23689 35.9696 11.234 35.9696 13.8457C35.9696 16.4573 33.9725 18.4545 31.3608 18.4545H17.5344C16.6127 18.4545 15.9982 17.84 15.9982 16.9182C15.9982 15.9965 16.6127 15.382 17.5344 15.382H31.3608ZM29.8246 24.5996H22.1432C21.2215 24.5996 20.607 23.9851 20.607 23.0633C20.607 22.1415 21.2215 21.527 22.1432 21.527H29.8246C32.4362 21.527 34.4334 23.5242 34.4334 26.1358C34.4334 28.7475 32.4362 30.7446 29.8246 30.7446C28.5956 30.7446 27.3665 30.2838 26.5984 29.362C25.9839 28.7475 25.9839 27.8257 26.5984 27.2112C27.2129 26.5967 28.1347 26.5967 28.7492 27.2112C29.0564 27.5185 29.3637 27.6721 29.8246 27.6721C30.7463 27.6721 31.3608 27.0576 31.3608 26.1358C31.3608 25.2141 30.7463 24.5996 29.8246 24.5996Z" fill="white"/>
</svg>
